# xmcd
#
# Track frame offsets:
#	150
#	23061
#	39395
#	58308
#	74908
#	93550
#	116141
#	130143
#	149972
#	165957
#	178624
#	197445
#	215555
#	235852
#	248432
#	270379
#	288160
#	306585
#
# Disc length: 4427 seconds
#
# Revision: 0
# Processed by: cddbd v1.5.2PL0 Copyright (c) Steve Scherf et al.
# Submitted via: audiograbber 1.83.01
#
DISCID=12114912
DTITLE=E-40 - The Block Brochure: Welcome To The Soil 3
DYEAR=2012
DGENRE=Rap
TTITLE0=E-40 - Jealous
TTITLE1=E-40, Cousin Fik - Wasted
TTITLE2=E-40, Snoop Dogg, Kurupt, Kokane - What You Smokin On
TTITLE3=E-40 - Making My Rounds
TTITLE4=E-40, Kendrick Lamar, Droop-E - Catch A Fade
TTITLE5=E-40, Too Short, J Banks - Be You
TTITLE6=E-40, Kaveo, Droop-E - It's Curtains
TTITLE7=E-40, Stresmatic - Stove On High
TTITLE8=E-40, Cousin Fik, Droop-E - Get Loose
TTITLE9=E-40 - Gargoyle Serenade
TTITLE10=E-40, Cool Nutz, Maniac Loc - Pussy Loud
TTITLE11=E-40, B-Legit, Willy Will - I Ain't Doin Nothin'
TTITLE12=E-40 - WHat Happened To Them Days
TTITLE13=E-40 - On His Top
TTITLE14=E-40, Katt Williams - Get Ya Weight Up
TTITLE15=E-40, Raheem Devaughn - Salute You
TTITLE16=E-40, The Hieroglyphics - 40 and Hiero
TTITLE17=E-40 - Sidewalk Memorial
EXTD=www.RapMusicGuide.com
EXTT0=
EXTT1=
EXTT2=
EXTT3=
EXTT4=
EXTT5=
EXTT6=
EXTT7=
EXTT8=
EXTT9=
EXTT10=
EXTT11=
EXTT12=
EXTT13=
EXTT14=
EXTT15=
EXTT16=
EXTT17=
PLAYORDER=
